<?xml version="1.0" encoding="utf-8"?>
<!-- Generator: Adobe Illustrator 15.1.0, SVG Export Plug-In . SVG Version: 6.00 Build 0)  -->
<!DOCTYPE svg PUBLIC "-//W3C//DTD SVG 1.1//EN" "http://www.w3.org/Graphics/SVG/1.1/DTD/svg11.dtd">
<svg version="1.1" xmlns="http://www.w3.org/2000/svg" xmlns:xlink="http://www.w3.org/1999/xlink" x="0px" y="0px" width="64px"
	 height="64px" viewBox="0 0 64 64" enable-background="new 0 0 64 64" xml:space="preserve">
<g id="Ebene_3" display="none">
	<rect display="inline" width="64" height="64"/>
</g>
<g id="over">
	<g display="none">
		<circle display="inline" fill="#FFFFFF" cx="32" cy="32" r="32"/>
		<path display="inline" fill="#379708" d="M47.492,28.166l-20-11.5c-1.547-0.89-3.451-0.887-4.996,0.006
			C20.951,17.566,20,19.215,20,21v22c0,1.75,0.916,3.373,2.414,4.279C23.207,47.759,24.103,48,25,48c0.797,0,1.595-0.19,2.324-0.573
			l20-10.5c1.615-0.848,2.64-2.507,2.675-4.331S49.073,29.075,47.492,28.166z"/>
	</g>
	<g display="none">
		<circle display="inline" fill="#FFFFFF" cx="32" cy="32" r="32"/>
		<g display="inline">
			<path fill="#379708" d="M24,47c-2.761,0-5-2.238-5-5V22c0-2.762,2.239-5,5-5s5,2.238,5,5v20C29,44.762,26.761,47,24,47z"/>
			<path fill="#379708" d="M39,47c-2.762,0-5-2.238-5-5V22c0-2.762,2.238-5,5-5s5,2.238,5,5v20C44,44.762,41.762,47,39,47z"/>
		</g>
	</g>
	<g display="none">
		<path display="inline" fill="#FFFFFF" d="M32,22c-5.514,0-10,4.486-10,10s4.486,10,10,10c5.514,0,10-4.486,10-10S37.514,22,32,22z
			"/>
		<path display="inline" fill="#379708" d="M32,27c-2.757,0-5,2.243-5,5s2.243,5,5,5s5-2.243,5-5S34.757,27,32,27z"/>
	</g>
	<g display="none">
		<circle display="inline" fill="#FFFFFF" cx="32" cy="32" r="32"/>
		<path display="inline" fill="#379708" d="M52.868,35.168c0.042-0.052,0.078-0.106,0.118-0.158
			c0.059-0.078,0.119-0.154,0.173-0.235c0.044-0.066,0.082-0.135,0.122-0.202c0.044-0.072,0.09-0.144,0.129-0.218
			c0.037-0.07,0.069-0.142,0.103-0.213c0.036-0.076,0.075-0.151,0.107-0.23c0.028-0.069,0.052-0.142,0.077-0.212
			c0.03-0.083,0.062-0.165,0.088-0.25c0.021-0.07,0.037-0.143,0.055-0.215c0.022-0.086,0.046-0.171,0.063-0.259
			c0.017-0.083,0.026-0.166,0.038-0.249c0.012-0.078,0.025-0.155,0.033-0.234c0.016-0.154,0.023-0.309,0.023-0.464
			C53.998,32.019,54,32.01,54,32c0-0.005-0.001-0.011-0.001-0.016c0-0.16-0.009-0.319-0.024-0.478
			c-0.007-0.075-0.021-0.147-0.031-0.221c-0.013-0.088-0.023-0.176-0.04-0.264c-0.017-0.082-0.039-0.162-0.06-0.243
			c-0.02-0.077-0.037-0.155-0.06-0.231c-0.024-0.079-0.054-0.154-0.081-0.231c-0.027-0.078-0.053-0.155-0.084-0.232
			c-0.029-0.07-0.064-0.138-0.097-0.207c-0.037-0.079-0.072-0.159-0.114-0.236c-0.034-0.064-0.074-0.125-0.111-0.188
			c-0.046-0.077-0.09-0.156-0.141-0.231c-0.043-0.065-0.092-0.126-0.139-0.188c-0.051-0.069-0.098-0.139-0.152-0.205
			c-0.082-0.099-0.17-0.192-0.258-0.285c-0.025-0.025-0.047-0.054-0.072-0.079l-15-15c-1.952-1.952-5.118-1.952-7.071,0
			c-1.953,1.953-1.953,5.119,0,7.071L36.93,27H14c-2.762,0-5,2.238-5,5s2.238,5,5,5h22.929l-6.464,6.465
			c-1.953,1.952-1.953,5.118,0,7.07C31.441,51.512,32.721,52,34,52s2.56-0.488,3.535-1.465l14.997-14.996
			C52.65,35.421,52.762,35.297,52.868,35.168z"/>
	</g>
	<g display="none">
		<circle display="inline" fill="#FFFFFF" cx="32" cy="32" r="32"/>
		<path display="inline" fill="#379708" d="M11.132,28.832c-0.042,0.052-0.078,0.106-0.118,0.158
			c-0.059,0.078-0.119,0.154-0.173,0.235c-0.044,0.066-0.082,0.135-0.122,0.202c-0.044,0.072-0.09,0.144-0.129,0.218
			c-0.037,0.07-0.069,0.142-0.103,0.213c-0.036,0.076-0.075,0.151-0.107,0.23c-0.028,0.069-0.052,0.142-0.077,0.212
			c-0.03,0.083-0.062,0.165-0.088,0.25c-0.021,0.07-0.037,0.143-0.055,0.215c-0.022,0.086-0.046,0.171-0.063,0.259
			c-0.017,0.083-0.026,0.166-0.038,0.249c-0.012,0.078-0.025,0.155-0.033,0.234c-0.016,0.154-0.023,0.309-0.023,0.464
			C10.002,31.981,10,31.99,10,32c0,0.005,0.001,0.011,0.001,0.016c0,0.16,0.009,0.319,0.024,0.478
			c0.007,0.075,0.021,0.147,0.031,0.221c0.013,0.088,0.023,0.176,0.04,0.264c0.017,0.082,0.039,0.162,0.06,0.243
			c0.02,0.077,0.037,0.155,0.06,0.231c0.024,0.078,0.054,0.154,0.081,0.23c0.027,0.078,0.053,0.155,0.084,0.232
			c0.029,0.07,0.064,0.138,0.097,0.207c0.037,0.079,0.072,0.158,0.114,0.236c0.034,0.064,0.074,0.125,0.111,0.188
			c0.046,0.077,0.09,0.155,0.141,0.231c0.043,0.065,0.092,0.126,0.139,0.188c0.051,0.068,0.098,0.139,0.152,0.205
			c0.082,0.099,0.17,0.192,0.258,0.285c0.025,0.025,0.047,0.054,0.072,0.079l15,15c1.952,1.952,5.118,1.952,7.07,0
			c1.953-1.953,1.953-5.119,0-7.071L27.07,37H50c2.762,0,5-2.238,5-5s-2.238-5-5-5H27.071l6.465-6.465
			c1.952-1.952,1.952-5.118-0.001-7.07C32.559,12.488,31.279,12,30,12s-2.56,0.488-3.535,1.465L11.468,28.461
			C11.35,28.579,11.238,28.703,11.132,28.832z"/>
	</g>
	<g display="none">
		<circle display="inline" fill="#FFFFFF" cx="32" cy="32" r="32"/>
		<path display="inline" fill="#379708" d="M35.168,11.132c-0.052-0.042-0.106-0.078-0.158-0.118
			c-0.078-0.059-0.154-0.119-0.235-0.173c-0.066-0.044-0.135-0.082-0.202-0.122c-0.072-0.044-0.144-0.09-0.218-0.129
			c-0.07-0.037-0.142-0.069-0.213-0.103c-0.076-0.036-0.151-0.075-0.23-0.107c-0.069-0.028-0.142-0.052-0.212-0.077
			c-0.083-0.03-0.165-0.062-0.25-0.088c-0.07-0.021-0.143-0.037-0.215-0.055c-0.086-0.022-0.171-0.046-0.259-0.063
			c-0.083-0.017-0.166-0.026-0.249-0.038c-0.078-0.012-0.155-0.026-0.234-0.034C32.338,10.009,32.184,10,32.028,10
			c-0.009,0-0.019,0-0.028,0c-0.005,0-0.011,0-0.016,0c-0.16,0-0.319,0.01-0.478,0.025c-0.075,0.007-0.147,0.02-0.221,0.031
			c-0.088,0.013-0.176,0.024-0.264,0.041c-0.082,0.017-0.162,0.039-0.243,0.06c-0.077,0.02-0.155,0.037-0.231,0.06
			c-0.078,0.024-0.154,0.054-0.23,0.081c-0.078,0.027-0.155,0.053-0.232,0.084c-0.07,0.029-0.138,0.064-0.207,0.097
			c-0.079,0.037-0.158,0.072-0.236,0.114c-0.064,0.034-0.125,0.074-0.188,0.111c-0.077,0.046-0.155,0.09-0.231,0.141
			c-0.065,0.043-0.126,0.092-0.188,0.139c-0.068,0.051-0.139,0.098-0.205,0.152c-0.099,0.082-0.192,0.17-0.285,0.258
			c-0.025,0.025-0.054,0.047-0.079,0.072l-15,15c-1.952,1.952-1.952,5.118,0,7.07c1.953,1.953,5.119,1.953,7.071,0L27,27.07V50
			c0,2.762,2.238,5,5,5s5-2.238,5-5V27.071l6.465,6.466c1.952,1.951,5.118,1.951,7.07-0.002C51.512,32.559,52,31.279,52,30
			s-0.488-2.56-1.465-3.535L35.539,11.468C35.421,11.35,35.297,11.238,35.168,11.132z"/>
	</g>
	<g>
		<circle fill="#FFFFFF" cx="32" cy="32" r="32"/>
		<path fill="#379708" d="M28.832,52.868c0.052,0.042,0.106,0.078,0.158,0.118c0.078,0.059,0.154,0.119,0.235,0.173
			c0.066,0.044,0.135,0.082,0.202,0.122c0.072,0.044,0.144,0.09,0.218,0.129c0.07,0.037,0.142,0.069,0.213,0.103
			c0.076,0.036,0.151,0.075,0.23,0.107c0.069,0.028,0.142,0.052,0.212,0.077c0.083,0.03,0.165,0.062,0.25,0.088
			c0.07,0.021,0.143,0.037,0.215,0.055c0.086,0.022,0.171,0.046,0.259,0.063c0.083,0.017,0.166,0.026,0.249,0.038
			c0.078,0.012,0.155,0.026,0.234,0.034C31.662,53.991,31.816,54,31.972,54c0.009,0,0.019,0,0.028,0c0.005,0,0.011,0,0.016,0
			c0.16,0,0.319-0.01,0.478-0.025c0.075-0.007,0.147-0.021,0.221-0.031c0.088-0.013,0.176-0.023,0.264-0.04
			c0.082-0.017,0.162-0.039,0.243-0.06c0.077-0.02,0.155-0.037,0.231-0.06c0.078-0.024,0.154-0.054,0.23-0.081
			c0.078-0.027,0.155-0.053,0.232-0.084c0.07-0.029,0.138-0.064,0.207-0.097c0.079-0.037,0.158-0.072,0.236-0.114
			c0.064-0.034,0.125-0.074,0.188-0.111c0.077-0.046,0.155-0.09,0.231-0.141c0.065-0.043,0.126-0.092,0.188-0.139
			c0.068-0.051,0.139-0.098,0.205-0.152c0.099-0.082,0.192-0.17,0.285-0.258c0.025-0.025,0.054-0.047,0.079-0.072l15-15
			c1.952-1.952,1.952-5.118,0-7.07c-1.953-1.953-5.119-1.953-7.071,0L37,36.93V14c0-2.762-2.238-5-5-5s-5,2.238-5,5v22.929
			l-6.465-6.466c-1.952-1.951-5.118-1.951-7.07,0.002C12.488,31.441,12,32.721,12,34s0.488,2.56,1.465,3.535l14.996,14.997
			C28.579,52.65,28.703,52.762,28.832,52.868z"/>
	</g>
</g>
<g id="icons" display="none">
	<path fill="#FFFFFF" d="M32,0C14.327,0,0,14.327,0,32s14.327,32,32,32s32-14.327,32-32S49.673,0,32,0z M53.998,32.028
		c0,0.155-0.008,0.31-0.023,0.464c-0.008,0.079-0.021,0.156-0.033,0.234c-0.012,0.083-0.021,0.167-0.038,0.249
		c-0.018,0.088-0.041,0.173-0.063,0.259c-0.018,0.072-0.033,0.145-0.055,0.215c-0.025,0.085-0.058,0.167-0.088,0.25
		c-0.025,0.07-0.049,0.143-0.077,0.212c-0.032,0.079-0.071,0.154-0.107,0.23c-0.033,0.071-0.065,0.143-0.103,0.213
		c-0.039,0.074-0.085,0.146-0.129,0.218c-0.04,0.067-0.078,0.136-0.122,0.202c-0.054,0.081-0.114,0.157-0.173,0.235
		c-0.04,0.052-0.076,0.106-0.118,0.158c-0.106,0.129-0.218,0.253-0.336,0.371L37.535,50.535C36.56,51.512,35.279,52,34,52
		s-2.559-0.488-3.535-1.465c-1.953-1.952-1.953-5.118,0-7.07L36.929,37H14c-2.762,0-5-2.238-5-5s2.238-5,5-5h22.93l-6.465-6.465
		c-1.953-1.952-1.953-5.118,0-7.071c1.953-1.952,5.119-1.952,7.071,0l15,15c0.025,0.025,0.047,0.054,0.072,0.079
		c0.088,0.093,0.176,0.187,0.258,0.285c0.055,0.066,0.102,0.136,0.152,0.205c0.047,0.062,0.096,0.123,0.139,0.188
		c0.051,0.076,0.095,0.154,0.141,0.231c0.037,0.063,0.077,0.124,0.111,0.188c0.042,0.078,0.077,0.157,0.114,0.236
		c0.032,0.069,0.067,0.137,0.097,0.207c0.031,0.077,0.057,0.154,0.084,0.232c0.027,0.077,0.057,0.152,0.081,0.231
		c0.022,0.076,0.04,0.154,0.06,0.231c0.021,0.081,0.043,0.161,0.06,0.243c0.017,0.087,0.027,0.176,0.04,0.264
		c0.011,0.073,0.025,0.146,0.032,0.221C53.991,31.666,54,31.825,54,31.984c0,0.005,0,0.01,0,0.016
		C54,32.01,53.998,32.019,53.998,32.028z"/>
	<path fill="#FFFFFF" d="M32,64c17.673,0,32-14.327,32-32S49.673,0,32,0S0,14.327,0,32S14.327,64,32,64z M10.002,31.972
		c0-0.155,0.008-0.31,0.023-0.464c0.008-0.079,0.021-0.156,0.033-0.234c0.012-0.083,0.021-0.167,0.038-0.249
		c0.018-0.088,0.041-0.173,0.063-0.259c0.018-0.072,0.033-0.145,0.055-0.215c0.025-0.085,0.058-0.167,0.088-0.25
		c0.025-0.07,0.049-0.143,0.077-0.212c0.032-0.079,0.071-0.154,0.107-0.23c0.033-0.071,0.065-0.143,0.103-0.213
		c0.039-0.074,0.085-0.146,0.129-0.218c0.04-0.067,0.078-0.136,0.122-0.202c0.054-0.081,0.114-0.157,0.173-0.235
		c0.04-0.052,0.076-0.106,0.118-0.158c0.106-0.129,0.218-0.253,0.336-0.371l14.997-14.996C27.44,12.488,28.721,12,30,12
		s2.559,0.488,3.535,1.465c1.953,1.952,1.953,5.118,0.001,7.07L27.071,27H50c2.762,0,5,2.238,5,5s-2.238,5-5,5H27.07l6.465,6.465
		c1.953,1.952,1.953,5.118,0,7.071c-1.952,1.952-5.118,1.952-7.07,0l-15-15c-0.025-0.025-0.047-0.054-0.072-0.079
		c-0.088-0.093-0.176-0.187-0.258-0.285c-0.055-0.066-0.102-0.137-0.152-0.205c-0.047-0.062-0.096-0.123-0.139-0.188
		c-0.051-0.076-0.095-0.154-0.141-0.231c-0.037-0.063-0.077-0.124-0.111-0.188c-0.042-0.078-0.077-0.157-0.114-0.236
		c-0.032-0.069-0.067-0.137-0.097-0.207c-0.031-0.077-0.057-0.154-0.084-0.232c-0.027-0.076-0.057-0.152-0.081-0.23
		c-0.022-0.076-0.04-0.154-0.06-0.231c-0.021-0.081-0.043-0.161-0.06-0.243c-0.017-0.087-0.027-0.176-0.04-0.264
		c-0.011-0.073-0.025-0.146-0.032-0.221C10.009,32.334,10,32.175,10,32.016c0-0.005,0-0.01,0-0.016
		C10,31.99,10.002,31.981,10.002,31.972z"/>
	<path fill="#FFFFFF" d="M0,32c0,17.674,14.327,32,32,32s32-14.326,32-32C64,14.327,49.673,0,32,0S0,14.327,0,32z M32.028,10
		c0.155,0,0.31,0.009,0.464,0.024c0.079,0.008,0.156,0.022,0.234,0.034c0.083,0.012,0.167,0.021,0.249,0.038
		c0.088,0.018,0.173,0.042,0.259,0.064c0.072,0.018,0.145,0.033,0.215,0.055c0.085,0.025,0.167,0.058,0.25,0.088
		c0.07,0.025,0.143,0.049,0.212,0.077c0.079,0.032,0.154,0.071,0.23,0.107c0.071,0.033,0.143,0.065,0.213,0.103
		c0.074,0.039,0.146,0.085,0.218,0.129c0.067,0.04,0.136,0.078,0.202,0.122c0.081,0.054,0.157,0.114,0.235,0.173
		c0.052,0.04,0.106,0.076,0.158,0.118c0.129,0.106,0.253,0.218,0.371,0.336l14.996,14.997C51.512,27.44,52,28.721,52,30
		s-0.488,2.559-1.465,3.535c-1.952,1.953-5.118,1.953-7.07,0.002L37,27.071V50c0,2.762-2.238,5-5,5s-5-2.238-5-5V27.07l-6.465,6.465
		c-1.952,1.953-5.118,1.953-7.071,0c-1.952-1.952-1.952-5.118,0-7.07l15-15c0.025-0.025,0.054-0.047,0.079-0.072
		c0.093-0.088,0.187-0.176,0.285-0.258c0.066-0.055,0.137-0.102,0.205-0.152c0.062-0.047,0.123-0.096,0.188-0.139
		c0.076-0.051,0.154-0.095,0.231-0.141c0.063-0.037,0.124-0.077,0.188-0.111c0.078-0.042,0.157-0.077,0.236-0.114
		c0.069-0.032,0.137-0.067,0.207-0.097c0.077-0.031,0.154-0.057,0.232-0.084c0.076-0.027,0.152-0.057,0.23-0.081
		c0.076-0.022,0.154-0.04,0.231-0.06c0.081-0.021,0.161-0.043,0.243-0.06c0.087-0.017,0.176-0.027,0.264-0.04
		c0.073-0.011,0.146-0.025,0.221-0.032C31.666,10.009,31.825,10,31.984,10c0.005,0,0.01,0,0.016,0C32.01,10,32.019,10,32.028,10z"/>
	<path display="inline" fill="#FFFFFF" d="M64,32C64,14.326,49.673,0,32,0S0,14.326,0,32c0,17.673,14.327,32,32,32S64,49.673,64,32z
		 M31.972,54c-0.155,0-0.31-0.009-0.464-0.024c-0.079-0.008-0.156-0.022-0.234-0.034c-0.083-0.012-0.167-0.021-0.249-0.038
		c-0.088-0.018-0.173-0.041-0.259-0.063c-0.072-0.018-0.145-0.033-0.215-0.055c-0.085-0.025-0.167-0.058-0.25-0.088
		c-0.07-0.025-0.143-0.049-0.212-0.077c-0.079-0.032-0.154-0.071-0.23-0.107c-0.071-0.033-0.143-0.065-0.213-0.103
		c-0.074-0.039-0.146-0.085-0.218-0.129c-0.067-0.04-0.136-0.078-0.202-0.122c-0.081-0.054-0.157-0.114-0.235-0.173
		c-0.052-0.04-0.106-0.076-0.158-0.118c-0.129-0.106-0.253-0.218-0.371-0.336L13.465,37.535C12.488,36.56,12,35.279,12,34
		s0.488-2.559,1.465-3.535c1.952-1.953,5.118-1.953,7.07-0.002L27,36.929V14c0-2.762,2.238-5,5-5s5,2.238,5,5v22.93l6.465-6.465
		c1.952-1.953,5.118-1.953,7.071,0c1.952,1.952,1.952,5.118,0,7.07l-15,15c-0.025,0.025-0.054,0.047-0.079,0.072
		c-0.093,0.088-0.187,0.176-0.285,0.258c-0.066,0.055-0.137,0.102-0.205,0.152c-0.062,0.047-0.123,0.096-0.188,0.139
		c-0.076,0.051-0.154,0.095-0.231,0.141c-0.063,0.037-0.124,0.077-0.188,0.111c-0.078,0.042-0.157,0.077-0.236,0.114
		c-0.069,0.032-0.137,0.067-0.207,0.097c-0.077,0.031-0.154,0.057-0.232,0.084c-0.076,0.027-0.152,0.057-0.23,0.081
		c-0.076,0.022-0.154,0.04-0.231,0.06c-0.081,0.021-0.161,0.043-0.243,0.06c-0.087,0.017-0.176,0.027-0.264,0.04
		c-0.073,0.011-0.146,0.025-0.221,0.032C32.334,53.991,32.175,54,32.016,54c-0.005,0-0.01,0-0.016,0C31.99,54,31.981,54,31.972,54z"
		/>
	<path fill="#FFFFFF" d="M32,0C14.327,0,0,14.327,0,32s14.327,32,32,32s32-14.327,32-32S49.673,0,32,0z M47.324,36.927l-20,10.5
		C26.596,47.81,25.797,48,25,48c-0.897,0-1.793-0.241-2.587-0.721C20.916,46.373,20,44.75,20,43V21c0-1.785,0.951-3.434,2.496-4.328
		c1.545-0.893,3.449-0.896,4.996-0.006l20,11.5c1.581,0.909,2.542,2.607,2.507,4.431S48.939,36.079,47.324,36.927z"/>
	<path fill="#FFFFFF" d="M32,0C14.327,0,0,14.327,0,32s14.327,32,32,32s32-14.327,32-32S49.673,0,32,0z M29,42c0,2.762-2.239,5-5,5
		s-5-2.238-5-5V22c0-2.762,2.239-5,5-5s5,2.238,5,5V42z M44,42c0,2.762-2.238,5-5,5s-5-2.238-5-5V22c0-2.762,2.238-5,5-5
		s5,2.238,5,5V42z"/>
	<path fill="#FFFFFF" d="M32,42c-5.514,0-10-4.486-10-10s4.486-10,10-10c5.514,0,10,4.486,10,10S37.514,42,32,42z M32,27
		c-2.757,0-5,2.243-5,5s2.243,5,5,5s5-2.243,5-5S34.757,27,32,27z"/>
</g>
</svg>
