<?xml version="1.0" standalone="no"?><!DOCTYPE svg PUBLIC "-//W3C//DTD SVG 1.1//EN" "http://www.w3.org/Graphics/SVG/1.1/DTD/svg11.dtd"><svg width="100%" height="100%" viewBox="0 0 64 64" version="1.1" xmlns="http://www.w3.org/2000/svg" xmlns:xlink="http://www.w3.org/1999/xlink" xml:space="preserve" style="fill-rule:evenodd;clip-rule:evenodd;stroke-linejoin:round;stroke-miterlimit:1.41421;"><g><path d="M32,0c17.6731,0 32,14.3269 32,32c0,17.6731 -14.3269,32 -32,32c-17.6731,0 -32,-14.3269 -32,-32c0,-17.6731 14.3269,-32 32,-32Z" style="fill:#fff;"/><path d="M28.832,52.868c0.052,0.042 0.106,0.078 0.158,0.118c0.078,0.059 0.154,0.119 0.235,0.173c0.066,0.044 0.135,0.082 0.202,0.122c0.072,0.044 0.144,0.09 0.218,0.129c0.07,0.037 0.142,0.069 0.213,0.103c0.076,0.036 0.151,0.075 0.23,0.107c0.069,0.028 0.142,0.052 0.212,0.077c0.083,0.03 0.165,0.062 0.25,0.088c0.07,0.021 0.143,0.037 0.215,0.055c0.086,0.022 0.171,0.046 0.259,0.063c0.083,0.017 0.166,0.026 0.249,0.038c0.078,0.012 0.155,0.026 0.234,0.034c0.155,0.016 0.309,0.025 0.465,0.025l0.044,0c0.16,0 0.319,-0.01 0.478,-0.025c0.075,-0.007 0.147,-0.021 0.221,-0.031c0.088,-0.013 0.176,-0.023 0.264,-0.04c0.082,-0.017 0.162,-0.039 0.243,-0.06c0.077,-0.02 0.155,-0.037 0.231,-0.06c0.078,-0.024 0.154,-0.054 0.23,-0.081c0.078,-0.027 0.155,-0.053 0.232,-0.084c0.07,-0.029 0.138,-0.064 0.207,-0.097c0.079,-0.037 0.158,-0.072 0.236,-0.114c0.064,-0.034 0.125,-0.074 0.188,-0.111c0.077,-0.046 0.155,-0.09 0.231,-0.141c0.065,-0.043 0.126,-0.092 0.188,-0.139c0.068,-0.051 0.139,-0.098 0.205,-0.152c0.099,-0.082 0.192,-0.17 0.285,-0.258c0.025,-0.025 0.054,-0.047 0.079,-0.072l15,-15c1.952,-1.952 1.952,-5.118 0,-7.07c-1.953,-1.953 -5.119,-1.953 -7.071,0l-6.463,6.465l0,-22.93c0,-2.762 -2.238,-5 -5,-5c-2.762,0 -5,2.238 -5,5l0,22.929l-6.465,-6.466c-1.952,-1.951 -5.118,-1.951 -7.07,0.002c-0.977,0.976 -1.465,2.256 -1.465,3.535c0,1.279 0.488,2.56 1.465,3.535l14.996,14.997c0.118,0.118 0.242,0.23 0.371,0.336Z" style="fill:#379708;fill-rule:nonzero;"/></g></svg>