<?xml version="1.0" standalone="no"?><!DOCTYPE svg PUBLIC "-//W3C//DTD SVG 1.1//EN" "http://www.w3.org/Graphics/SVG/1.1/DTD/svg11.dtd"><svg width="100%" height="100%" viewBox="0 0 64 64" version="1.1" xmlns="http://www.w3.org/2000/svg" xmlns:xlink="http://www.w3.org/1999/xlink" xml:space="preserve" style="fill-rule:evenodd;clip-rule:evenodd;stroke-linejoin:round;stroke-miterlimit:1.41421;"><g id="over"><path d="M32,0c17.6731,0 32,14.3269 32,32c0,17.6731 -14.3269,32 -32,32c-17.6731,0 -32,-14.3269 -32,-32c0,-17.6731 14.3269,-32 32,-32Z" style="fill:#fff;"/><path d="M47.492,28.166l-20,-11.5c-1.547,-0.89 -3.451,-0.887 -4.996,0.006c-1.545,0.894 -2.496,2.543 -2.496,4.328l0,22c0,1.75 0.916,3.373 2.414,4.279c0.793,0.48 1.689,0.721 2.586,0.721c0.797,0 1.595,-0.19 2.324,-0.573l20,-10.5c1.615,-0.848 2.64,-2.507 2.675,-4.331c0.035,-1.824 -0.926,-3.521 -2.507,-4.43Z" style="fill:#379708;fill-rule:nonzero;"/></g></svg>