<?xml version="1.0" standalone="no"?><!DOCTYPE svg PUBLIC "-//W3C//DTD SVG 1.1//EN" "http://www.w3.org/Graphics/SVG/1.1/DTD/svg11.dtd"><svg width="100%" height="100%" viewBox="0 0 64 64" version="1.1" xmlns="http://www.w3.org/2000/svg" xmlns:xlink="http://www.w3.org/1999/xlink" xml:space="preserve" style="fill-rule:evenodd;clip-rule:evenodd;stroke-linejoin:round;stroke-miterlimit:1.41421;"><g id="over"><path d="M32,0c17.6731,0 32,14.3269 32,32c0,17.6731 -14.3269,32 -32,32c-17.6731,0 -32,-14.3269 -32,-32c0,-17.6731 14.3269,-32 32,-32Z" style="fill:#fff;"/><path d="M11.132,28.832c-0.042,0.052 -0.078,0.106 -0.118,0.158c-0.059,0.078 -0.119,0.154 -0.173,0.235c-0.044,0.066 -0.082,0.135 -0.122,0.202c-0.044,0.072 -0.09,0.144 -0.129,0.218c-0.037,0.07 -0.069,0.142 -0.103,0.213c-0.036,0.076 -0.075,0.151 -0.107,0.23c-0.028,0.069 -0.052,0.142 -0.077,0.212c-0.03,0.083 -0.062,0.165 -0.088,0.25c-0.021,0.07 -0.037,0.143 -0.055,0.215c-0.022,0.086 -0.046,0.171 -0.063,0.259c-0.017,0.083 -0.026,0.166 -0.038,0.249c-0.012,0.078 -0.025,0.155 -0.033,0.234c-0.016,0.154 -0.023,0.309 -0.023,0.464c-0.001,0.01 -0.003,0.019 -0.003,0.029c0,0.005 0.001,0.011 0.001,0.016c0,0.16 0.009,0.319 0.024,0.478c0.007,0.075 0.021,0.147 0.031,0.221c0.013,0.088 0.023,0.176 0.04,0.264c0.017,0.082 0.039,0.162 0.06,0.243c0.02,0.077 0.037,0.155 0.06,0.231c0.024,0.078 0.054,0.154 0.081,0.23c0.027,0.078 0.053,0.155 0.084,0.232c0.029,0.07 0.064,0.138 0.097,0.207c0.037,0.079 0.072,0.158 0.114,0.236c0.034,0.064 0.074,0.125 0.111,0.188c0.046,0.077 0.09,0.155 0.141,0.231c0.043,0.065 0.092,0.126 0.139,0.188c0.051,0.068 0.098,0.139 0.152,0.205c0.082,0.099 0.17,0.192 0.258,0.285c0.025,0.025 0.047,0.054 0.072,0.079l15,15c1.952,1.952 5.118,1.952 7.07,0c1.953,-1.953 1.953,-5.119 0,-7.071l-6.465,-6.463l22.93,0c2.762,0 5,-2.238 5,-5c0,-2.762 -2.238,-5 -5,-5l-22.929,0l6.465,-6.465c1.952,-1.952 1.952,-5.118 -0.001,-7.07c-0.976,-0.977 -2.256,-1.465 -3.535,-1.465c-1.279,0 -2.56,0.488 -3.535,1.465l-14.997,14.996c-0.118,0.118 -0.23,0.242 -0.336,0.371Z" style="fill:#379708;fill-rule:nonzero;"/></g></svg>