<?xml version="1.0" encoding="utf-8"?>
<!-- Generator: Adobe Illustrator 15.1.0, SVG Export Plug-In . SVG Version: 6.00 Build 0)  -->
<!DOCTYPE svg PUBLIC "-//W3C//DTD SVG 1.1//EN" "http://www.w3.org/Graphics/SVG/1.1/DTD/svg11.dtd">
<svg version="1.1" xmlns="http://www.w3.org/2000/svg" xmlns:xlink="http://www.w3.org/1999/xlink" x="0px" y="0px" width="64px"
	 height="64px" viewBox="0 0 64 64" enable-background="new 0 0 64 64" xml:space="preserve">
<g id="over" display="none">
	<g display="inline">
		<circle fill="#FFFFFF" cx="32" cy="32" r="32"/>
		<path fill="#379708" d="M50.868,35.168c0.042-0.052,0.078-0.106,0.118-0.158c0.059-0.078,0.119-0.154,0.173-0.235
			c0.044-0.066,0.082-0.135,0.122-0.202c0.044-0.072,0.09-0.144,0.129-0.218c0.037-0.07,0.069-0.142,0.103-0.213
			c0.036-0.076,0.075-0.151,0.107-0.23c0.028-0.069,0.052-0.142,0.077-0.212c0.03-0.083,0.062-0.165,0.088-0.25
			c0.021-0.07,0.037-0.143,0.055-0.215c0.022-0.086,0.046-0.171,0.063-0.259c0.017-0.083,0.026-0.166,0.038-0.249
			c0.012-0.078,0.025-0.155,0.033-0.234c0.016-0.154,0.023-0.309,0.023-0.464C51.998,32.019,52,32.01,52,32
			c0-0.005-0.001-0.011-0.001-0.016c0-0.16-0.009-0.319-0.024-0.478c-0.007-0.075-0.021-0.147-0.031-0.221
			c-0.013-0.088-0.023-0.176-0.04-0.264c-0.017-0.082-0.039-0.162-0.06-0.243c-0.02-0.077-0.037-0.155-0.06-0.231
			c-0.024-0.079-0.054-0.154-0.081-0.231c-0.027-0.078-0.053-0.155-0.084-0.232c-0.029-0.07-0.064-0.138-0.097-0.207
			c-0.037-0.079-0.072-0.159-0.114-0.236c-0.034-0.064-0.074-0.125-0.111-0.188c-0.046-0.077-0.09-0.156-0.141-0.231
			c-0.043-0.065-0.092-0.126-0.139-0.188c-0.051-0.069-0.098-0.139-0.152-0.205c-0.082-0.099-0.17-0.192-0.258-0.285
			c-0.025-0.025-0.047-0.054-0.072-0.079l-15-15c-1.952-1.952-5.118-1.952-7.071,0c-1.953,1.953-1.953,5.119,0,7.071L34.93,27H12
			c-2.762,0-5,2.238-5,5s2.238,5,5,5h22.929l-6.464,6.465c-1.953,1.952-1.953,5.118,0,7.07C29.441,51.512,30.721,52,32,52
			s2.56-0.488,3.535-1.465l14.997-14.996C50.65,35.421,50.762,35.297,50.868,35.168z"/>
	</g>
	<g display="inline">
		<circle fill="#FFFFFF" cx="32" cy="32" r="32"/>
		<path fill="#379708" d="M47.492,28.166l-20-11.5c-1.547-0.89-3.451-0.887-4.996,0.006C20.951,17.566,20,19.215,20,21v22
			c0,1.75,0.916,3.373,2.414,4.279C23.207,47.759,24.103,48,25,48c0.797,0,1.595-0.19,2.324-0.573l20-10.5
			c1.615-0.848,2.64-2.507,2.675-4.331S49.073,29.075,47.492,28.166z"/>
	</g>
	<g display="inline">
		<circle fill="#FFFFFF" cx="32" cy="32" r="32"/>
		<g>
			<path fill="#379708" d="M24,47c-2.761,0-5-2.238-5-5V22c0-2.762,2.239-5,5-5s5,2.238,5,5v20C29,44.762,26.761,47,24,47z"/>
			<path fill="#379708" d="M39,47c-2.762,0-5-2.238-5-5V22c0-2.762,2.238-5,5-5s5,2.238,5,5v20C44,44.762,41.762,47,39,47z"/>
		</g>
	</g>
	<g display="inline">
		<path fill="#FFFFFF" d="M32,22c-5.514,0-10,4.486-10,10s4.486,10,10,10c5.514,0,10-4.486,10-10S37.514,22,32,22z"/>
		<path fill="#379708" d="M32,27c-2.757,0-5,2.243-5,5s2.243,5,5,5s5-2.243,5-5S34.757,27,32,27z"/>
	</g>
</g>
<g id="icons">
	<path display="none" fill="#FFFFFF" d="M32,0C14.327,0,0,14.327,0,32s14.327,32,32,32s32-14.327,32-32S49.673,0,32,0z
		 M54.999,32.021c-0.001,0.154-0.009,0.308-0.023,0.462c-0.007,0.067-0.019,0.132-0.027,0.198c-0.013,0.092-0.024,0.184-0.042,0.276
		c-0.015,0.076-0.034,0.15-0.053,0.226c-0.02,0.079-0.037,0.159-0.061,0.238c-0.023,0.076-0.05,0.15-0.076,0.225
		c-0.025,0.076-0.052,0.151-0.082,0.227c-0.029,0.072-0.062,0.144-0.095,0.215c-0.034,0.073-0.068,0.147-0.106,0.22
		c-0.035,0.069-0.074,0.136-0.113,0.202c-0.041,0.071-0.082,0.142-0.128,0.211c-0.043,0.066-0.088,0.131-0.134,0.194
		c-0.047,0.065-0.094,0.13-0.145,0.192c-0.052,0.065-0.105,0.128-0.16,0.189c-0.033,0.037-0.062,0.077-0.096,0.113L39.67,50.424
		c-0.984,1.057-2.32,1.592-3.66,1.592c-1.22,0-2.443-0.444-3.406-1.342c-2.021-1.882-2.133-5.046-0.25-7.066L38.509,37H12
		c-2.762,0-5-2.238-5-5s2.238-5,5-5h26.498l-6.143-6.586c-1.884-2.019-1.774-5.183,0.245-7.066c2.021-1.884,5.184-1.774,7.067,0.245
		l13.988,14.997c0.035,0.037,0.064,0.078,0.098,0.115c0.054,0.062,0.107,0.124,0.158,0.188s0.099,0.129,0.146,0.194
		c0.046,0.064,0.091,0.127,0.134,0.193c0.045,0.07,0.088,0.141,0.129,0.212c0.039,0.066,0.077,0.133,0.113,0.201
		c0.037,0.073,0.072,0.146,0.105,0.221c0.033,0.071,0.065,0.142,0.096,0.215c0.029,0.074,0.056,0.15,0.082,0.226
		c0.026,0.075,0.053,0.149,0.075,0.226c0.023,0.079,0.042,0.158,0.062,0.238c0.018,0.075,0.038,0.149,0.053,0.226
		c0.018,0.092,0.029,0.185,0.042,0.278c0.009,0.065,0.021,0.129,0.027,0.195C54.991,31.677,55,31.838,55,31.999c0,0,0,0,0,0.001
		C55,32.007,54.999,32.014,54.999,32.021z"/>
	<path display="none" fill="#FFFFFF" d="M32,64c17.673,0,32-14.327,32-32S49.673,0,32,0S0,14.327,0,32S14.327,64,32,64z
		 M9.001,31.979c0.001-0.154,0.009-0.308,0.023-0.462c0.007-0.067,0.019-0.132,0.027-0.198c0.013-0.092,0.024-0.184,0.042-0.276
		c0.015-0.076,0.034-0.15,0.053-0.226c0.02-0.079,0.037-0.159,0.061-0.238c0.023-0.076,0.05-0.15,0.076-0.225
		c0.025-0.076,0.052-0.151,0.082-0.227c0.029-0.072,0.062-0.144,0.095-0.215c0.034-0.073,0.068-0.147,0.106-0.22
		c0.035-0.069,0.074-0.136,0.113-0.202c0.041-0.071,0.082-0.142,0.128-0.211c0.043-0.066,0.088-0.131,0.134-0.194
		c0.047-0.065,0.094-0.13,0.145-0.192c0.052-0.065,0.105-0.128,0.16-0.189c0.033-0.037,0.062-0.077,0.096-0.113L24.33,13.576
		c0.984-1.057,2.32-1.592,3.66-1.592c1.22,0,2.443,0.444,3.406,1.342c2.021,1.882,2.133,5.046,0.25,7.066L25.491,27H52
		c2.762,0,5,2.238,5,5s-2.238,5-5,5H25.502l6.143,6.586c1.884,2.02,1.773,5.183-0.245,7.066c-2.021,1.884-5.184,1.773-7.067-0.245
		L10.344,35.41c-0.035-0.037-0.064-0.077-0.098-0.115c-0.054-0.062-0.107-0.123-0.158-0.188c-0.051-0.063-0.099-0.129-0.146-0.194
		c-0.046-0.063-0.091-0.127-0.134-0.192c-0.045-0.07-0.088-0.141-0.129-0.212c-0.039-0.066-0.077-0.133-0.113-0.201
		c-0.037-0.073-0.072-0.146-0.105-0.221c-0.033-0.071-0.065-0.142-0.096-0.215c-0.029-0.074-0.056-0.15-0.082-0.226
		s-0.053-0.149-0.075-0.226c-0.023-0.079-0.042-0.158-0.062-0.238c-0.018-0.075-0.038-0.149-0.053-0.226
		c-0.018-0.092-0.029-0.185-0.042-0.278c-0.009-0.065-0.021-0.129-0.027-0.195C9.009,32.323,9,32.162,9,32.001c0,0,0,0,0-0.001
		C9,31.993,9.001,31.986,9.001,31.979z"/>
	<path display="none" fill="#FFFFFF" d="M32,0C14.327,0,0,14.327,0,32s14.327,32,32,32s32-14.327,32-32S49.673,0,32,0z
		 M47.324,36.927l-20,10.5C26.596,47.81,25.797,48,25,48c-0.897,0-1.793-0.241-2.587-0.721C20.916,46.373,20,44.75,20,43V21
		c0-1.785,0.951-3.434,2.496-4.328c1.545-0.893,3.449-0.896,4.996-0.006l20,11.5c1.581,0.909,2.542,2.607,2.507,4.431
		S48.939,36.079,47.324,36.927z"/>
	<path fill="#FFFFFF" d="M32,0C14.327,0,0,14.327,0,32s14.327,32,32,32s32-14.327,32-32S49.673,0,32,0z M29,42c0,2.762-2.239,5-5,5
		s-5-2.238-5-5V22c0-2.762,2.239-5,5-5s5,2.238,5,5V42z M44,42c0,2.762-2.238,5-5,5s-5-2.238-5-5V22c0-2.762,2.238-5,5-5
		s5,2.238,5,5V42z"/>
	<path display="none" fill="#FFFFFF" d="M32,42c-5.514,0-10-4.486-10-10s4.486-10,10-10c5.514,0,10,4.486,10,10S37.514,42,32,42z
		 M32,27c-2.757,0-5,2.243-5,5s2.243,5,5,5s5-2.243,5-5S34.757,27,32,27z"/>
</g>
</svg>
