<?xml version="1.0" standalone="no"?><!DOCTYPE svg PUBLIC "-//W3C//DTD SVG 1.1//EN" "http://www.w3.org/Graphics/SVG/1.1/DTD/svg11.dtd"><svg width="100%" height="100%" viewBox="0 0 64 64" version="1.1" xmlns="http://www.w3.org/2000/svg" xmlns:xlink="http://www.w3.org/1999/xlink" xml:space="preserve" style="fill-rule:evenodd;clip-rule:evenodd;stroke-linejoin:round;stroke-miterlimit:1.41421;"><g id="over"><path d="M32,0c17.6731,0 32,14.3269 32,32c0,17.6731 -14.3269,32 -32,32c-17.6731,0 -32,-14.3269 -32,-32c0,-17.6731 14.3269,-32 32,-32Z" style="fill:#fff;"/><path d="M52.868,35.168c0.042,-0.052 0.078,-0.106 0.118,-0.158c0.059,-0.078 0.119,-0.154 0.173,-0.235c0.044,-0.066 0.082,-0.135 0.122,-0.202c0.044,-0.072 0.09,-0.144 0.129,-0.218c0.037,-0.07 0.069,-0.142 0.103,-0.213c0.036,-0.076 0.075,-0.151 0.107,-0.23c0.028,-0.069 0.052,-0.142 0.077,-0.212c0.03,-0.083 0.062,-0.165 0.088,-0.25c0.021,-0.07 0.037,-0.143 0.055,-0.215c0.022,-0.086 0.046,-0.171 0.063,-0.259c0.017,-0.083 0.026,-0.166 0.038,-0.249c0.012,-0.078 0.025,-0.155 0.033,-0.234c0.016,-0.154 0.023,-0.309 0.023,-0.464c0.001,-0.01 0.003,-0.019 0.003,-0.029c0,-0.005 -0.001,-0.011 -0.001,-0.016c0,-0.16 -0.009,-0.319 -0.024,-0.478c-0.007,-0.075 -0.021,-0.147 -0.031,-0.221c-0.013,-0.088 -0.023,-0.176 -0.04,-0.264c-0.017,-0.082 -0.039,-0.162 -0.06,-0.243c-0.02,-0.077 -0.037,-0.155 -0.06,-0.231c-0.024,-0.079 -0.054,-0.154 -0.081,-0.231c-0.027,-0.078 -0.053,-0.155 -0.084,-0.232c-0.029,-0.07 -0.064,-0.138 -0.097,-0.207c-0.037,-0.079 -0.072,-0.159 -0.114,-0.236c-0.034,-0.064 -0.074,-0.125 -0.111,-0.188c-0.046,-0.077 -0.09,-0.156 -0.141,-0.231c-0.043,-0.065 -0.092,-0.126 -0.139,-0.188c-0.051,-0.069 -0.098,-0.139 -0.152,-0.205c-0.082,-0.099 -0.17,-0.192 -0.258,-0.285c-0.025,-0.025 -0.047,-0.054 -0.072,-0.079l-15,-15c-1.952,-1.952 -5.118,-1.952 -7.071,0c-1.953,1.953 -1.953,5.119 0,7.071l6.466,6.464l-22.93,0c-2.762,0 -5,2.238 -5,5c0,2.762 2.238,5 5,5l22.929,0l-6.464,6.465c-1.953,1.952 -1.953,5.118 0,7.07c0.976,0.977 2.256,1.465 3.535,1.465c1.279,0 2.56,-0.488 3.535,-1.465l14.997,-14.996c0.118,-0.118 0.23,-0.242 0.336,-0.371Z" style="fill:#379708;fill-rule:nonzero;"/></g></svg>