<?xml version="1.0" standalone="no"?><!DOCTYPE svg PUBLIC "-//W3C//DTD SVG 1.1//EN" "http://www.w3.org/Graphics/SVG/1.1/DTD/svg11.dtd"><svg width="100%" height="100%" viewBox="0 0 64 64" version="1.1" xmlns="http://www.w3.org/2000/svg" xmlns:xlink="http://www.w3.org/1999/xlink" xml:space="preserve" style="fill-rule:evenodd;clip-rule:evenodd;stroke-linejoin:round;stroke-miterlimit:1.41421;"><path id="icons" d="M0,32c0,17.674 14.327,32 32,32c17.673,0 32,-14.326 32,-32c0,-17.673 -14.327,-32 -32,-32c-17.673,0 -32,14.327 -32,32ZM32.028,10c0.155,0 0.31,0.009 0.464,0.024c0.079,0.008 0.156,0.022 0.234,0.034c0.083,0.012 0.167,0.021 0.249,0.038c0.088,0.018 0.173,0.042 0.259,0.064c0.072,0.018 0.145,0.033 0.215,0.055c0.085,0.025 0.167,0.058 0.25,0.088c0.07,0.025 0.143,0.049 0.212,0.077c0.079,0.032 0.154,0.071 0.23,0.107c0.071,0.033 0.143,0.065 0.213,0.103c0.074,0.039 0.146,0.085 0.218,0.129c0.067,0.04 0.136,0.078 0.202,0.122c0.081,0.054 0.157,0.114 0.235,0.173c0.052,0.04 0.106,0.076 0.158,0.118c0.129,0.106 0.253,0.218 0.371,0.336l14.996,14.997c0.978,0.975 1.466,2.256 1.466,3.535c0,1.279 -0.488,2.559 -1.465,3.535c-1.952,1.953 -5.118,1.953 -7.07,0.002l-6.465,-6.466l0,22.929c0,2.762 -2.238,5 -5,5c-2.762,0 -5,-2.238 -5,-5l0,-22.93l-6.465,6.465c-1.952,1.953 -5.118,1.953 -7.071,0c-1.952,-1.952 -1.952,-5.118 0,-7.07l15,-15c0.025,-0.025 0.054,-0.047 0.079,-0.072c0.093,-0.088 0.187,-0.176 0.285,-0.258c0.066,-0.055 0.137,-0.102 0.205,-0.152c0.062,-0.047 0.123,-0.096 0.188,-0.139c0.076,-0.051 0.154,-0.095 0.231,-0.141c0.063,-0.037 0.124,-0.077 0.188,-0.111c0.078,-0.042 0.157,-0.077 0.236,-0.114c0.069,-0.032 0.137,-0.067 0.207,-0.097c0.077,-0.031 0.154,-0.057 0.232,-0.084c0.076,-0.027 0.152,-0.057 0.23,-0.081c0.076,-0.022 0.154,-0.04 0.231,-0.06c0.081,-0.021 0.161,-0.043 0.243,-0.06c0.087,-0.017 0.176,-0.027 0.264,-0.04c0.073,-0.011 0.146,-0.025 0.221,-0.032c0.162,-0.015 0.321,-0.024 0.48,-0.024Z" style="fill:#fff;fill-rule:nonzero;"/></svg>