<?xml version="1.0" standalone="no"?><!DOCTYPE svg PUBLIC "-//W3C//DTD SVG 1.1//EN" "http://www.w3.org/Graphics/SVG/1.1/DTD/svg11.dtd"><svg width="100%" height="100%" viewBox="0 0 64 64" version="1.1" xmlns="http://www.w3.org/2000/svg" xmlns:xlink="http://www.w3.org/1999/xlink" xml:space="preserve" style="fill-rule:evenodd;clip-rule:evenodd;stroke-linejoin:round;stroke-miterlimit:1.41421;"><path id="icons" d="M32,0c-17.673,0 -32,14.327 -32,32c0,17.673 14.327,32 32,32c17.673,0 32,-14.327 32,-32c0,-17.673 -14.327,-32 -32,-32ZM47.324,36.927l-20,10.5c-0.728,0.383 -1.527,0.573 -2.324,0.573c-0.897,0 -1.793,-0.241 -2.587,-0.721c-1.497,-0.906 -2.413,-2.529 -2.413,-4.279l0,-22c0,-1.785 0.951,-3.434 2.496,-4.328c1.545,-0.893 3.449,-0.896 4.996,-0.006l20,11.5c1.581,0.909 2.542,2.607 2.507,4.431c-0.035,1.824 -1.06,3.482 -2.675,4.33Z" style="fill:#fff;fill-rule:nonzero;"/></svg>