<?xml version="1.0" standalone="no"?><!DOCTYPE svg PUBLIC "-//W3C//DTD SVG 1.1//EN" "http://www.w3.org/Graphics/SVG/1.1/DTD/svg11.dtd"><svg width="100%" height="100%" viewBox="0 0 64 64" version="1.1" xmlns="http://www.w3.org/2000/svg" xmlns:xlink="http://www.w3.org/1999/xlink" xml:space="preserve" style="fill-rule:evenodd;clip-rule:evenodd;stroke-linejoin:round;stroke-miterlimit:1.41421;"><g id="over"><g><path d="M32,0c17.6731,0 32,14.3269 32,32c0,17.6731 -14.3269,32 -32,32c-17.6731,0 -32,-14.3269 -32,-32c0,-17.6731 14.3269,-32 32,-32Z" style="fill:#fff;"/><g><path d="M24,47c-2.761,0 -5,-2.238 -5,-5l0,-20c0,-2.762 2.239,-5 5,-5c2.761,0 5,2.238 5,5l0,20c0,2.762 -2.239,5 -5,5Z" style="fill:#379708;fill-rule:nonzero;"/><path d="M39,47c-2.762,0 -5,-2.238 -5,-5l0,-20c0,-2.762 2.238,-5 5,-5c2.762,0 5,2.238 5,5l0,20c0,2.762 -2.238,5 -5,5Z" style="fill:#379708;fill-rule:nonzero;"/></g></g></g></svg>