<?xml version="1.0" encoding="utf-8"?>
<!-- Generator: Adobe Illustrator 15.1.0, SVG Export Plug-In . SVG Version: 6.00 Build 0)  -->
<!DOCTYPE svg PUBLIC "-//W3C//DTD SVG 1.1//EN" "http://www.w3.org/Graphics/SVG/1.1/DTD/svg11.dtd">
<svg version="1.1" id="Ebene_1" xmlns="http://www.w3.org/2000/svg" xmlns:xlink="http://www.w3.org/1999/xlink" x="0px" y="0px"
	 width="20px" height="20px" viewBox="0 0 20 20" enable-background="new 0 0 20 20" xml:space="preserve">
<path display="none" fill="#FFFFFF" d="M10,20C4.486,20,0,15.514,0,10S4.486,0,10,0c5.514,0,10,4.486,10,10S15.514,20,10,20z M10,5
	c-2.757,0-5,2.243-5,5s2.243,5,5,5s5-2.243,5-5S12.757,5,10,5z"/>
<g>
	<path fill="#FFFFFF" d="M10,0C4.486,0,0,4.486,0,10s4.486,10,10,10c5.514,0,10-4.486,10-10S15.514,0,10,0z"/>
	<path fill="#379708" d="M10,5c-2.757,0-5,2.243-5,5s2.243,5,5,5s5-2.243,5-5S12.757,5,10,5z"/>
</g>
</svg>
