<?xml version="1.0" standalone="no"?><!DOCTYPE svg PUBLIC "-//W3C//DTD SVG 1.1//EN" "http://www.w3.org/Graphics/SVG/1.1/DTD/svg11.dtd"><svg width="100%" height="100%" viewBox="0 0 64 64" version="1.1" xmlns="http://www.w3.org/2000/svg" xmlns:xlink="http://www.w3.org/1999/xlink" xml:space="preserve" style="fill-rule:evenodd;clip-rule:evenodd;stroke-linejoin:round;stroke-miterlimit:1.41421;"><path id="icons" d="M32,0c-17.673,0 -32,14.327 -32,32c0,17.673 14.327,32 32,32c17.673,0 32,-14.327 32,-32c0,-17.673 -14.327,-32 -32,-32ZM53.998,32.028c0,0.155 -0.008,0.31 -0.023,0.464c-0.008,0.079 -0.021,0.156 -0.033,0.234c-0.012,0.083 -0.021,0.167 -0.038,0.249c-0.018,0.088 -0.041,0.173 -0.063,0.259c-0.018,0.072 -0.033,0.145 -0.055,0.215c-0.025,0.085 -0.058,0.167 -0.088,0.25c-0.025,0.07 -0.049,0.143 -0.077,0.212c-0.032,0.079 -0.071,0.154 -0.107,0.23c-0.033,0.071 -0.065,0.143 -0.103,0.213c-0.039,0.074 -0.085,0.146 -0.129,0.218c-0.04,0.067 -0.078,0.136 -0.122,0.202c-0.054,0.081 -0.114,0.157 -0.173,0.235c-0.04,0.052 -0.076,0.106 -0.118,0.158c-0.106,0.129 -0.218,0.253 -0.336,0.371l-14.998,14.997c-0.975,0.977 -2.256,1.465 -3.535,1.465c-1.279,0 -2.559,-0.488 -3.535,-1.465c-1.953,-1.952 -1.953,-5.118 0,-7.07l6.464,-6.465l-22.929,0c-2.762,0 -5,-2.238 -5,-5c0,-2.762 2.238,-5 5,-5l22.93,0l-6.465,-6.465c-1.953,-1.952 -1.953,-5.118 0,-7.071c1.953,-1.952 5.119,-1.952 7.071,0l15,15c0.025,0.025 0.047,0.054 0.072,0.079c0.088,0.093 0.176,0.187 0.258,0.285c0.055,0.066 0.102,0.136 0.152,0.205c0.047,0.062 0.096,0.123 0.139,0.188c0.051,0.076 0.095,0.154 0.141,0.231c0.037,0.063 0.077,0.124 0.111,0.188c0.042,0.078 0.077,0.157 0.114,0.236c0.032,0.069 0.067,0.137 0.097,0.207c0.031,0.077 0.057,0.154 0.084,0.232c0.027,0.077 0.057,0.152 0.081,0.231c0.022,0.076 0.04,0.154 0.06,0.231c0.021,0.081 0.043,0.161 0.06,0.243c0.017,0.087 0.027,0.176 0.04,0.264c0.011,0.073 0.025,0.146 0.032,0.221c0.014,0.161 0.023,0.32 0.023,0.479c0,0.005 0,0.01 0,0.016c0,0.01 -0.002,0.019 -0.002,0.028Z" style="fill:#fff;fill-rule:nonzero;"/></svg>